<svg id="Capa_1" enable-background="new 0 0 512 512" height="512" viewBox="0 0 512 512" width="512" xmlns="http://www.w3.org/2000/svg"><g><g><path d="m488.337 462.073h-464.674c-8.926 0-16.163-7.236-16.163-16.163v-339.414c0-8.926 7.236-16.163 16.163-16.163h464.674c8.926 0 16.163 7.236 16.163 16.163v339.415c0 8.926-7.236 16.162-16.163 16.162z" fill="#b78e8e"/></g><g><path d="m485.307 90.333v342.445c0 5.579-4.523 10.102-10.102 10.102h-467.705v3.03c0 8.926 7.236 16.163 16.163 16.163h464.674c8.926 0 16.163-7.236 16.163-16.163v-339.414c0-8.926-7.236-16.163-16.163-16.163z" fill="#aa8080"/></g><g><path d="m104.476 62.049h303.049v428.309h-303.049z" fill="#ecc373" transform="matrix(0 1 -1 0 532.203 20.203)"/></g><g><path d="m445.91 124.679h24.244v303.049h-24.244z" fill="#dab46b"/></g><g><circle cx="256" cy="70.13" fill="#efecef" r="20.203"/></g><g><g><path d="m74.171 157.004h101.016v101.016h-101.016z" fill="#b3e59f"/></g></g><g><g><path d="m154.984 294.386h101.016v101.016h-101.016z" fill="#e28086"/></g></g><g><g><path d="m304.488 182.258h101.016v121.22h-101.016z" fill="#bed8fb"/></g></g><g><path d="m488.337 82.833h-46.58c-4.142 0-7.5 3.357-7.5 7.5s3.358 7.5 7.5 7.5h46.58c4.776 0 8.663 3.887 8.663 8.663v339.414c0 4.776-3.886 8.663-8.663 8.663h-464.674c-4.776 0-8.663-3.887-8.663-8.663v-339.414c0-4.776 3.886-8.663 8.663-8.663h382.98c4.142 0 7.5-3.357 7.5-7.5s-3.358-7.5-7.5-7.5h-126.037c1.974-3.808 3.097-8.126 3.097-12.703 0-15.275-12.428-27.703-27.703-27.703s-27.703 12.428-27.703 27.703c0 4.577 1.123 8.895 3.097 12.703h-207.731c-13.048 0-23.663 10.615-23.663 23.663v339.414c0 13.048 10.615 23.663 23.663 23.663h464.675c13.047 0 23.663-10.615 23.663-23.663v-339.414c-.001-13.048-10.616-23.663-23.664-23.663zm-245.04-12.703c0-7.005 5.699-12.703 12.703-12.703s12.703 5.698 12.703 12.703-5.699 12.703-12.703 12.703-12.703-5.698-12.703-12.703z"/><path d="m97.056 435.228h373.099c4.142 0 7.5-3.357 7.5-7.5v-303.049c0-4.143-3.358-7.5-7.5-7.5h-428.309c-4.142 0-7.5 3.357-7.5 7.5v303.049c0 4.143 3.358 7.5 7.5 7.5h20.154c4.142 0 7.5-3.357 7.5-7.5s-3.358-7.5-7.5-7.5h-12.654v-288.049h413.309v288.049h-365.599c-4.142 0-7.5 3.357-7.5 7.5s3.358 7.5 7.5 7.5z"/><path d="m175.187 149.504h-101.016c-4.142 0-7.5 3.357-7.5 7.5v101.017c0 4.143 3.358 7.5 7.5 7.5h101.016c4.142 0 7.5-3.357 7.5-7.5v-101.017c0-4.143-3.358-7.5-7.5-7.5zm-7.5 101.017h-86.016v-86.017h86.016z"/><path d="m147.484 294.386v101.017c0 4.143 3.358 7.5 7.5 7.5h101.016c4.142 0 7.5-3.357 7.5-7.5v-101.017c0-4.143-3.358-7.5-7.5-7.5h-101.016c-4.142 0-7.5 3.357-7.5 7.5zm15 7.5h86.016v86.017h-86.016z"/><path d="m405.504 310.978c4.142 0 7.5-3.357 7.5-7.5v-121.22c0-4.143-3.358-7.5-7.5-7.5h-101.016c-4.142 0-7.5 3.357-7.5 7.5v121.22c0 4.143 3.358 7.5 7.5 7.5zm-93.516-121.22h86.016v106.22h-86.016z"/></g></g></svg>