<svg width="89" height="81" viewBox="0 0 89 81" fill="none" xmlns="http://www.w3.org/2000/svg">
<path d="M89 40.5C89 18.1325 70.8675 0 48.5 0H40.5C18.1325 0 -9.53674e-07 18.1325 -9.53674e-07 40.5V40.5C-9.53674e-07 62.8675 18.1325 81 40.5 81H48.5C70.8675 81 89 62.8675 89 40.5V40.5Z" fill="#FF3131" fill-opacity="0.71"/>
<path d="M52.5205 34.0602C51.8427 34.0602 51.2933 34.6117 51.2933 35.2923V58.5779C51.2933 59.2579 51.8427 59.8099 52.5205 59.8099C53.1984 59.8099 53.7478 59.2579 53.7478 58.5779V35.2923C53.7478 34.6117 53.1984 34.0602 52.5205 34.0602Z" fill="black"/>
<path d="M38.0392 34.0602C37.3614 34.0602 36.812 34.6117 36.812 35.2923V58.5779C36.812 59.2579 37.3614 59.8099 38.0392 59.8099C38.7171 59.8099 39.2664 59.2579 39.2664 58.5779V35.2923C39.2664 34.6117 38.7171 34.0602 38.0392 34.0602Z" fill="black"/>
<path d="M27.4855 30.662V61.0168C27.4855 62.811 28.1408 64.4959 29.2855 65.7048C30.425 66.9171 32.0108 67.6054 33.6704 67.6082H56.8895C58.5496 67.6054 60.1354 66.9171 61.2744 65.7048C62.4191 64.4959 63.0744 62.811 63.0744 61.0168V30.662C65.3501 30.0556 66.8246 27.8485 66.5202 25.5043C66.2153 23.1605 64.2264 21.4072 61.8717 21.4068H55.5885V19.8667C55.5957 18.5716 55.0856 17.328 54.1724 16.4132C53.2592 15.4988 52.0186 14.9896 50.7286 15.0002H39.8314C38.5413 14.9896 37.3007 15.4988 36.3875 16.4132C35.4743 17.328 34.9642 18.5716 34.9714 19.8667V21.4068H28.6882C26.3335 21.4072 24.3446 23.1605 24.0397 25.5043C23.7353 27.8485 25.2099 30.0556 27.4855 30.662V30.662ZM56.8895 65.1442H33.6704C31.5722 65.1442 29.9399 63.3346 29.9399 61.0168V30.7703H60.62V61.0168C60.62 63.3346 58.9878 65.1442 56.8895 65.1442ZM37.4258 19.8667C37.4177 19.2252 37.6689 18.6077 38.1224 18.1549C38.5754 17.702 39.1919 17.4532 39.8314 17.4642H50.7286C51.3681 17.4532 51.9845 17.702 52.4375 18.1549C52.891 18.6072 53.1422 19.2252 53.1341 19.8667V21.4068H37.4258V19.8667ZM28.6882 23.8708H61.8717C63.0917 23.8708 64.0807 24.8637 64.0807 26.0885C64.0807 27.3133 63.0917 28.3062 61.8717 28.3062H28.6882C27.4682 28.3062 26.4793 27.3133 26.4793 26.0885C26.4793 24.8637 27.4682 23.8708 28.6882 23.8708V23.8708Z" fill="black"/>
<path d="M45.2798 34.0602C44.602 34.0602 44.0526 34.6117 44.0526 35.2923V58.5779C44.0526 59.2579 44.602 59.8099 45.2798 59.8099C45.9576 59.8099 46.507 59.2579 46.507 58.5779V35.2923C46.507 34.6117 45.9576 34.0602 45.2798 34.0602Z" fill="black"/>
</svg>
