<svg width="89" height="81" viewBox="0 0 89 81" fill="none" xmlns="http://www.w3.org/2000/svg">
<path d="M89 40.5C89 18.1325 70.8675 0 48.5 0H40.5C18.1325 0 -9.53674e-07 18.1325 -9.53674e-07 40.5V40.5C-9.53674e-07 62.8675 18.1325 81 40.5 81H48.5C70.8675 81 89 62.8675 89 40.5V40.5Z" fill="#957964" fill-opacity="0.71"/>
<g clip-path="url(#clip0)">
<path d="M68.4125 21.2057L63.7911 16.5838C61.6795 14.4722 58.2439 14.4723 56.1323 16.5838C54.1442 18.5721 23.7778 48.9408 21.7484 50.9703C21.5323 51.1864 21.3874 51.4737 21.3358 51.7547L19.0251 64.2337C18.9356 64.7175 19.0898 65.2145 19.4377 65.5624C19.786 65.9108 20.2831 66.0647 20.7663 65.9751L33.2442 63.6641C33.5326 63.6103 33.8161 63.4641 34.0286 63.2514L68.4125 28.8649C70.529 26.7484 70.5293 23.3225 68.4125 21.2057ZM22.359 62.6408L23.7569 55.092L29.9073 61.2429L22.359 62.6408ZM32.9722 60.0817L24.9179 52.0269L54.3235 22.619L62.3778 30.6739L32.9722 60.0817ZM66.2995 26.7519L64.4907 28.5609L56.4364 20.506L58.2452 18.697C59.1916 17.7505 60.7315 17.7504 61.6781 18.697L66.2995 23.3189C67.2483 24.2676 67.2483 25.803 66.2995 26.7519Z" fill="black"/>
</g>
<defs>
<clipPath id="clip0">
<rect width="51" height="51" fill="white" transform="translate(19 15)"/>
</clipPath>
</defs>
</svg>
